<svg xmlns="http://www.w3.org/2000/svg" width="1000" height="900" viewBox="0 0 1000 900">
  <defs>
    <linearGradient id="bg" x1="0" x2="1" y1="0" y2="1">
      <stop offset="0%" stop-color="#f7fbff"/>
      <stop offset="100%" stop-color="#fcf8f2"/>
    </linearGradient>
  </defs>

  <rect width="1000" height="900" fill="url(#bg)"/>
  <rect x="42" y="36" width="916" height="828" rx="26" fill="#ffffff" stroke="#d8e0eb" stroke-width="2"/>

  <text x="500" y="88" text-anchor="middle" font-family="Georgia, 'Times New Roman', serif" font-size="34" font-weight="700" fill="#132033">
    Figure 1. The 3-regular dodecahedral graph used in Aura
  </text>
  <text x="500" y="124" text-anchor="middle" font-family="Georgia, 'Times New Roman', serif" font-size="19" fill="#45556e">
    |V| = 20, |E| = 30, diameter D = 5. Each vertex is a computational node and each edge carries only a fixed-size compressed state σ.
  </text>

  <rect x="88" y="156" width="824" height="612" rx="22" fill="#fbfcfe" stroke="#e3e8ef" stroke-width="2"/>

  <!-- outer cycle -->
  <line x1="500.0" y1="226.0" x2="652.8" y2="275.7" stroke="#7d8aa0" stroke-width="4"/>
  <line x1="652.8" y1="275.7" x2="747.3" y2="405.7" stroke="#7d8aa0" stroke-width="4"/>
  <line x1="747.3" y1="405.7" x2="747.3" y2="566.3" stroke="#7d8aa0" stroke-width="4"/>
  <line x1="747.3" y1="566.3" x2="652.8" y2="696.3" stroke="#7d8aa0" stroke-width="4"/>
  <line x1="652.8" y1="696.3" x2="500.0" y2="746.0" stroke="#7d8aa0" stroke-width="4"/>
  <line x1="500.0" y1="746.0" x2="347.2" y2="696.3" stroke="#7d8aa0" stroke-width="4"/>
  <line x1="347.2" y1="696.3" x2="252.7" y2="566.3" stroke="#7d8aa0" stroke-width="4"/>
  <line x1="252.7" y1="566.3" x2="252.7" y2="405.7" stroke="#7d8aa0" stroke-width="4"/>
  <line x1="252.7" y1="405.7" x2="347.2" y2="275.7" stroke="#7d8aa0" stroke-width="4"/>
  <line x1="347.2" y1="275.7" x2="500.0" y2="226.0" stroke="#7d8aa0" stroke-width="4"/>

  <!-- spokes -->
  <line x1="500.0" y1="226.0" x2="500.0" y2="331.0" stroke="#9aa5b6" stroke-width="3"/>
  <line x1="652.8" y1="275.7" x2="591.1" y2="360.6" stroke="#9aa5b6" stroke-width="3"/>
  <line x1="747.3" y1="405.7" x2="647.4" y2="438.1" stroke="#9aa5b6" stroke-width="3"/>
  <line x1="747.3" y1="566.3" x2="647.4" y2="533.9" stroke="#9aa5b6" stroke-width="3"/>
  <line x1="652.8" y1="696.3" x2="591.1" y2="611.4" stroke="#9aa5b6" stroke-width="3"/>
  <line x1="500.0" y1="746.0" x2="500.0" y2="641.0" stroke="#9aa5b6" stroke-width="3"/>
  <line x1="347.2" y1="696.3" x2="408.9" y2="611.4" stroke="#9aa5b6" stroke-width="3"/>
  <line x1="252.7" y1="566.3" x2="352.6" y2="533.9" stroke="#9aa5b6" stroke-width="3"/>
  <line x1="252.7" y1="405.7" x2="352.6" y2="438.1" stroke="#9aa5b6" stroke-width="3"/>
  <line x1="347.2" y1="275.7" x2="408.9" y2="360.6" stroke="#9aa5b6" stroke-width="3"/>

  <!-- inner star -->
  <line x1="500.0" y1="331.0" x2="647.4" y2="438.1" stroke="#c79a43" stroke-width="4"/>
  <line x1="591.1" y1="360.6" x2="647.4" y2="533.9" stroke="#c79a43" stroke-width="4"/>
  <line x1="647.4" y1="438.1" x2="591.1" y2="611.4" stroke="#c79a43" stroke-width="4"/>
  <line x1="647.4" y1="533.9" x2="500.0" y2="641.0" stroke="#c79a43" stroke-width="4"/>
  <line x1="591.1" y1="611.4" x2="408.9" y2="611.4" stroke="#c79a43" stroke-width="4"/>
  <line x1="500.0" y1="641.0" x2="352.6" y2="533.9" stroke="#c79a43" stroke-width="4"/>
  <line x1="408.9" y1="611.4" x2="352.6" y2="438.1" stroke="#c79a43" stroke-width="4"/>
  <line x1="352.6" y1="533.9" x2="408.9" y2="360.6" stroke="#c79a43" stroke-width="4"/>
  <line x1="352.6" y1="438.1" x2="500.0" y2="331.0" stroke="#c79a43" stroke-width="4"/>
  <line x1="408.9" y1="360.6" x2="591.1" y2="360.6" stroke="#c79a43" stroke-width="4"/>

  <!-- nodes -->
  <circle cx="500.0" cy="226.0" r="22" fill="#d86a1d" stroke="#a44d12" stroke-width="3"/>
  <text x="500.0" y="233.0" text-anchor="middle" font-family="Helvetica, Arial, sans-serif" font-size="18" font-weight="700" fill="#ffffff">1</text>

  <circle cx="652.8" cy="275.7" r="18" fill="#f0b14e" stroke="#b27a1f" stroke-width="2"/>
  <text x="652.8" y="281.7" text-anchor="middle" font-family="Helvetica, Arial, sans-serif" font-size="16" font-weight="700" fill="#ffffff">2</text>

  <circle cx="747.3" cy="405.7" r="18" fill="#cfd7e4" stroke="#90a0b8" stroke-width="2"/>
  <text x="747.3" y="411.7" text-anchor="middle" font-family="Helvetica, Arial, sans-serif" font-size="16" font-weight="700" fill="#334155">3</text>

  <circle cx="747.3" cy="566.3" r="18" fill="#cfd7e4" stroke="#90a0b8" stroke-width="2"/>
  <text x="747.3" y="572.3" text-anchor="middle" font-family="Helvetica, Arial, sans-serif" font-size="16" font-weight="700" fill="#334155">4</text>

  <circle cx="652.8" cy="696.3" r="18" fill="#cfd7e4" stroke="#90a0b8" stroke-width="2"/>
  <text x="652.8" y="702.3" text-anchor="middle" font-family="Helvetica, Arial, sans-serif" font-size="16" font-weight="700" fill="#334155">5</text>

  <circle cx="500.0" cy="746.0" r="18" fill="#cfd7e4" stroke="#90a0b8" stroke-width="2"/>
  <text x="500.0" y="752.0" text-anchor="middle" font-family="Helvetica, Arial, sans-serif" font-size="16" font-weight="700" fill="#334155">6</text>

  <circle cx="347.2" cy="696.3" r="18" fill="#cfd7e4" stroke="#90a0b8" stroke-width="2"/>
  <text x="347.2" y="702.3" text-anchor="middle" font-family="Helvetica, Arial, sans-serif" font-size="16" font-weight="700" fill="#334155">7</text>

  <circle cx="252.7" cy="566.3" r="18" fill="#cfd7e4" stroke="#90a0b8" stroke-width="2"/>
  <text x="252.7" y="572.3" text-anchor="middle" font-family="Helvetica, Arial, sans-serif" font-size="16" font-weight="700" fill="#334155">8</text>

  <circle cx="252.7" cy="405.7" r="18" fill="#cfd7e4" stroke="#90a0b8" stroke-width="2"/>
  <text x="252.7" y="411.7" text-anchor="middle" font-family="Helvetica, Arial, sans-serif" font-size="16" font-weight="700" fill="#334155">9</text>

  <circle cx="347.2" cy="275.7" r="18" fill="#f0b14e" stroke="#b27a1f" stroke-width="2"/>
  <text x="347.2" y="281.7" text-anchor="middle" font-family="Helvetica, Arial, sans-serif" font-size="16" font-weight="700" fill="#ffffff">10</text>

  <circle cx="500.0" cy="331.0" r="18" fill="#f0b14e" stroke="#b27a1f" stroke-width="2"/>
  <text x="500.0" y="337.0" text-anchor="middle" font-family="Helvetica, Arial, sans-serif" font-size="15" font-weight="700" fill="#ffffff">11</text>

  <circle cx="591.1" cy="360.6" r="18" fill="#d9dde5" stroke="#97a2b4" stroke-width="2"/>
  <text x="591.1" y="366.6" text-anchor="middle" font-family="Helvetica, Arial, sans-serif" font-size="15" font-weight="700" fill="#334155">12</text>

  <circle cx="647.4" cy="438.1" r="18" fill="#d9dde5" stroke="#97a2b4" stroke-width="2"/>
  <text x="647.4" y="444.1" text-anchor="middle" font-family="Helvetica, Arial, sans-serif" font-size="15" font-weight="700" fill="#334155">13</text>

  <circle cx="647.4" cy="533.9" r="18" fill="#d9dde5" stroke="#97a2b4" stroke-width="2"/>
  <text x="647.4" y="539.9" text-anchor="middle" font-family="Helvetica, Arial, sans-serif" font-size="15" font-weight="700" fill="#334155">14</text>

  <circle cx="591.1" cy="611.4" r="18" fill="#d9dde5" stroke="#97a2b4" stroke-width="2"/>
  <text x="591.1" y="617.4" text-anchor="middle" font-family="Helvetica, Arial, sans-serif" font-size="15" font-weight="700" fill="#334155">15</text>

  <circle cx="500.0" cy="641.0" r="18" fill="#d9dde5" stroke="#97a2b4" stroke-width="2"/>
  <text x="500.0" y="647.0" text-anchor="middle" font-family="Helvetica, Arial, sans-serif" font-size="15" font-weight="700" fill="#334155">16</text>

  <circle cx="408.9" cy="611.4" r="18" fill="#d9dde5" stroke="#97a2b4" stroke-width="2"/>
  <text x="408.9" y="617.4" text-anchor="middle" font-family="Helvetica, Arial, sans-serif" font-size="15" font-weight="700" fill="#334155">17</text>

  <circle cx="352.6" cy="533.9" r="18" fill="#d9dde5" stroke="#97a2b4" stroke-width="2"/>
  <text x="352.6" y="539.9" text-anchor="middle" font-family="Helvetica, Arial, sans-serif" font-size="15" font-weight="700" fill="#334155">18</text>

  <circle cx="352.6" cy="438.1" r="18" fill="#d9dde5" stroke="#97a2b4" stroke-width="2"/>
  <text x="352.6" y="444.1" text-anchor="middle" font-family="Helvetica, Arial, sans-serif" font-size="15" font-weight="700" fill="#334155">19</text>

  <circle cx="408.9" cy="360.6" r="18" fill="#d9dde5" stroke="#97a2b4" stroke-width="2"/>
  <text x="408.9" y="366.6" text-anchor="middle" font-family="Helvetica, Arial, sans-serif" font-size="15" font-weight="700" fill="#334155">20</text>

  <rect x="96" y="782" width="352" height="60" rx="14" fill="#fff6e8" stroke="#ead7bc" stroke-width="2"/>
  <text x="272" y="808" text-anchor="middle" font-family="Georgia, serif" font-size="18" fill="#6b4b16">
    Interpret the highlighted top node as v_out = v_1.
  </text>
  <text x="272" y="830" text-anchor="middle" font-family="Georgia, serif" font-size="18" fill="#6b4b16">
    Then N(v_out) = {v_2, v_10, v_11}.
  </text>

  <rect x="472" y="782" width="432" height="60" rx="14" fill="#f5f8fc" stroke="#d8e0eb" stroke-width="2"/>
  <text x="688" y="808" text-anchor="middle" font-family="Georgia, serif" font-size="18" fill="#243247">
    Outer nodes are v_1...v_10; inner nodes are v_11...v_20.
  </text>
  <text x="688" y="830" text-anchor="middle" font-family="Georgia, serif" font-size="18" fill="#243247">
    Each edge carries only fixed-size compressed state σ.
  </text>
</svg>
